:SAMPLES-PER-SECOND 30
:FULLY-SPECIFIED
:DEGREES
81
root  34.81753492 36.50008975 -14.92396527 8.45400238 -5.094713211 3.965565205
lowerback  -7.229429722 -1.246899962 -0.5182832479
upperback  -4.073589802 -1.211689949 -3.127640009
thorax  -0.2092480063 -0.4602780044 -3.017369986
lowerneck  -5.725329876 -13.9467001 -11.42679977
upperneck  15.57509995 -19.3764019 12.14710045
head  8.07583046 -8.871740341 3.795949936
lclavicle  0 -4.497500157e-015 -2.743230041e-014
lhumerus  -47.81169891 26.70709991 66.39859772
lradius  -0.03732675686 -6.507048965e-006 31.04999924
lwrist  4.824992743e-007 -3.790274832e-007 -26.51370049
lhand  -4.417981087e-031 -36.94029999 -10.61769962
lfingers  90 7.125020027 -90
lthumb  94.82269544 -25.45320061 101.1068052
rclavicle  0 -4.497500157e-015 -2.743230041e-014
rhumerus  -61.06869888 -23.99029922 -31.50580025
rradius  -5.16745672e-007 2.214343908e-008 106.4899979
rwrist  -7.499573258e-005 0.03438235447 -179.2527924
rhand  -1.768491735e-031 3.298160076 -7.226560116
rfingers  -90 -7.125020027 -90
rthumb  -85.16961627 -8.727737616 -60.88576951
rfemur  -12.7799654 16.32732582 12.67173576
rtibia  -1.55508399 -1.182923436 21.66306496
rfoot  -0.1960475743 -22.12038231 -36.42786026
rtoes  4.175026167 19.57684997 -102.2901931
lfemur  -8.284827232 -17.04421043 -20.73564529
ltibia  2.581259251 -1.172026992 14.94795609
lfoot  1.021683693 -23.3873558 37.62375259
ltoes  -8.545493037 -18.15040954 -115.7510447
82
root  34.81788035 36.50122515 -14.92380307 8.469420433 -5.160290718 3.978787422
lowerback  -7.220339298 -1.269420028 -0.5396671295
upperback  -4.068099976 -1.239369988 -3.152940035
thorax  -0.2100760043 -0.4736340046 -3.033309937
lowerneck  -5.399020195 -14.26679993 -11.61699963
upperneck  15.46020031 -19.84810066 12.32409954
head  8.079959869 -9.107359886 3.830659866
lclavicle  0 -4.497500157e-015 -2.743230041e-014
lhumerus  -47.81309891 26.65839958 66.36979675
lradius  -0.03768446669 -6.507048965e-006 31.09869957
lwrist  4.824992743e-007 -3.790274832e-007 -26.51539993
lhand  -4.418584162e-031 -36.95069885 -10.6239996
lfingers  90 7.125020027 -90
lthumb  94.82893757 -25.45902318 101.1185748
rclavicle  0 -4.497500157e-015 -2.743230041e-014
rhumerus  -60.86270142 -24.13999748 -30.70920181
rradius  -5.16745672e-007 2.214343908e-008 106.9280014
rwrist  -7.499573258e-005 0.03438235447 -179.1260071
rhand  -1.769315638e-031 3.732569933 -7.360239983
rfingers  -90 -7.125020027 -90
rthumb  -85.13742631 -8.638182176 -60.47213211
rfemur  -12.79793644 16.31902695 12.64499187
rtibia  -1.557951212 -1.216163874 21.65033722
rfoot  -0.1816834956 -22.1595974 -36.37041092
rtoes  4.164349475 19.57903854 -102.2583309
lfemur  -8.3093853 -17.07136726 -20.75294685
ltibia  2.582144022 -1.199610949 14.96779251
lfoot  1.044529438 -23.34515381 37.69578552
ltoes  -8.529377266 -18.15778775 -115.699321
83
root  34.81876944 36.50309045 -14.92369794 8.501736641 -5.239630699 3.994867563
lowerback  -7.220260143 -1.298069954 -0.5797963142
upperback  -4.051010132 -1.275679946 -3.156879902
thorax  -0.1933359951 -0.4915109873 -3.017379999
lowerneck  -5.096189976 -14.57120037 -11.85919952
upperneck  15.35610008 -20.29590034 12.51060009
head  8.097270012 -9.333479881 3.87616992
lclavicle  0 -4.497500157e-015 -2.743230041e-014
lhumerus  -47.77270126 26.67040062 66.33769989
lradius  -0.03802899271 -6.507048965e-006 31.03720093
lwrist  4.824992743e-007 -3.790274832e-007 -26.5298996
lhand  -4.41948382e-031 -36.96620178 -10.61989975
lfingers  90 7.125020027 -90
lthumb  94.83532623 -25.45442273 101.1348166
rclavicle  0 -4.497500157e-015 -2.743230041e-014
rhumerus  -60.40179825 -24.12120247 -29.92689705
rradius  -5.16745672e-007 2.214343908e-008 107.1269989
rwrist  -7.499573258e-005 0.03438235447 -179.3609924
rhand  -1.769327453e-031 3.738430023 -7.176939964
rfingers  -90 -7.125020027 -90
rthumb  -85.04466549 -8.79805815 -60.45265659
rfemur  -12.85336399 16.2988739 12.61096764
rtibia  -1.570292234 -1.255202055 21.65664673
rfoot  -0.1644940972 -22.19665718 -36.27854538
rtoes  4.162008069 19.57951771 -102.2513439
lfemur  -8.402320862 -17.11194611 -20.75171661
ltibia  2.544138908 -1.26316309 15.05262566
lfoot  1.027847052 -23.25180244 37.68482208
ltoes  -8.525744481 -18.15944854 -115.6876643
84
root  34.8227193 36.50447215 -14.9236649 8.52339077 -5.33764267 4.01423502
lowerback  -7.242519855 -1.317180037 -0.6513305306
upperback  -4.024059772 -1.299000025 -3.126650095
thorax  -0.1516820043 -0.5028420091 -2.947969913
lowerneck  -4.822939873 -14.88319969 -12.11569977
upperneck  15.27929974 -20.74720001 12.64610004
head  8.127010345 -9.564929962 3.903199911
lclavicle  0 -4.497500157e-015 -2.743230041e-014
lhumerus  -47.74909973 26.81119919 66.31759644
lradius  -0.03835917637 -6.507048965e-006 30.99189949
lwrist  4.824992743e-007 -3.790274832e-007 -26.6868
lhand  -4.418915034e-031 -36.95640182 -10.64379978
lfingers  90 7.125020027 -90
lthumb  94.83582184 -25.47818458 101.1264837
rclavicle  0 -4.497500157e-015 -2.743230041e-014
rhumerus  -59.83110046 -24.29330063 -28.96310043
rradius  -5.16745672e-007 2.214343908e-008 107.314003
rwrist  -7.499573258e-005 0.03438235447 -179.3849945
rhand  -1.769671453e-031 3.905169964 -6.95126009
rfingers  -90 -7.125020027 -90
rthumb  -84.89297653 -9.004335398 -60.2724102
rfemur  -12.90467262 16.31389427 12.56903076
rtibia  -1.581373692 -1.290113091 21.66972733
rfoot  -0.1539756805 -22.2306385 -36.20454025
rtoes  4.157502674 19.58043895 -102.2378999
lfemur  -8.428420067 -17.07501793 -20.77726364
ltibia  2.549245834 -1.288359404 15.05704498
lfoot  1.051848412 -23.20644379 37.7507515
ltoes  -8.513708097 -18.16494488 -115.64905
85
root  34.82465669 36.50539729 -14.92346065 8.538982391 -5.424521923 4.043629169
lowerback  -7.237709999 -1.318019986 -0.6647280455
upperback  -4.008600235 -1.301239967 -3.120320082
thorax  -0.1379580051 -0.5045109987 -2.934030056
lowerneck  -4.529560089 -15.18410015 -12.3203001
upperneck  15.1633997 -21.18499947 12.77130032
head  8.13313961 -9.790439606 3.923569918
lclavicle  0 -4.497500157e-015 -2.743230041e-014
lhumerus  -47.70999908 26.90099907 66.31210327
lradius  -0.03867385164 -6.507048965e-006 30.94949913
lwrist  4.824992743e-007 -3.790274832e-007 -26.82889938
lhand  -4.418694368e-031 -36.95259857 -10.66810036
lfingers  90 7.125020027 -90
lthumb  94.83921564 -25.50214307 101.1246161
rclavicle  0 -4.497500157e-015 -2.743230041e-014
rhumerus  -59.38499832 -24.42720032 -28.10340309
rradius  -5.16745672e-007 2.214343908e-008 107.3259964
rwrist  -7.499573258e-005 0.03438235447 -179.6580048
rhand  -1.770395464e-031 4.234549999 -7.216599941
rfingers  -90 -7.125020027 -90
rthumb  -84.94977575 -8.794501076 -59.97179931
rfemur  -12.95015621 16.31818771 12.52607536
rtibia  -1.595659614 -1.314151049 21.7027092
rfoot  -0.1493266821 -22.24752045 -36.12071991
rtoes  4.162433661 19.57943064 -102.2526139
lfemur  -8.41390419 -17.09938431 -20.83880424
ltibia  2.579010963 -1.332863092 15.01440239
lfoot  1.05081141 -23.09966087 37.80504608
ltoes  -8.543223675 -18.15144956 -115.74376
